<?xml version="1.0" encoding="utf-8"?>
<!-- Generator: Adobe Illustrator 15.0.0, SVG Export Plug-In . SVG Version: 6.00 Build 0)  -->
<!DOCTYPE svg PUBLIC "-//W3C//DTD SVG 1.1//EN" "http://www.w3.org/Graphics/SVG/1.1/DTD/svg11.dtd">
<svg version="1.1" xmlns="http://www.w3.org/2000/svg" xmlns:xlink="http://www.w3.org/1999/xlink" x="0px" y="0px" width="96px"
	 height="73.889px" viewBox="-321.928 203.427 96 73.889" enable-background="new -321.928 203.427 96 73.889" xml:space="preserve"
	>
<g id="Layer_1">
	<g id="menu-dark">
		<g id="menu-inactive">
			<g id="menu">
				<g>
					<path fill="#2D2D2D" d="M67.501,2.309l20.5,11.833v23.666l-20.5,11.833l-20.5-11.833V14.143L67.501,2.309 M67.501,0
						l-22.5,12.984v25.979l22.5,12.988l22.5-12.988V12.988L67.501,0L67.501,0z"/>
				</g>
			</g>
			<g>
				<g>
					<g>
						<path fill="#2D2D2D" d="M56.137,27.976c7.576,0,15.152,0,22.729,0c2.577,0,2.577-4,0-4c-7.577,0-15.153,0-22.729,0
							C53.557,23.976,53.557,27.976,56.137,27.976L56.137,27.976z"/>
					</g>
				</g>
				<g>
					<g>
						<path fill="#2D2D2D" d="M56.137,34.077c7.576,0,15.152,0,22.729,0c2.577,0,2.577-4,0-4c-7.577,0-15.153,0-22.729,0
							C53.557,30.077,53.557,34.077,56.137,34.077L56.137,34.077z"/>
					</g>
				</g>
				<g>
					<g>
						<path fill="#2D2D2D" d="M56.137,21.874c7.576,0,15.152,0,22.729,0c2.577,0,2.577-4,0-4c-7.577,0-15.153,0-22.729,0
							C53.557,17.874,53.557,21.874,56.137,21.874L56.137,21.874z"/>
					</g>
				</g>
			</g>
		</g>
	</g>
	<g id="menu-light">
		<g id="menu-inactive-invert">
			<g id="menu_2_">
				<g>
					<path fill="#FFFFFF" d="M67.501,54.26l20.5,11.833V89.76l-20.5,11.833l-20.5-11.833V66.094L67.501,54.26 M67.501,51.951
						l-22.5,12.984v25.979l22.5,12.984l22.5-12.984V64.939L67.501,51.951L67.501,51.951z"/>
				</g>
			</g>
			<g>
				<g>
					<g>
						<path fill="#FFFFFF" d="M56.137,79.927c7.576,0,15.152,0,22.729,0c2.577,0,2.577-4,0-4c-7.577,0-15.153,0-22.729,0
							C53.557,75.927,53.557,79.927,56.137,79.927L56.137,79.927z"/>
					</g>
				</g>
				<g>
					<g>
						<path fill="#FFFFFF" d="M56.137,86.028c7.576,0,15.152,0,22.729,0c2.577,0,2.577-4,0-4c-7.577,0-15.153,0-22.729,0
							C53.557,82.028,53.557,86.028,56.137,86.028L56.137,86.028z"/>
					</g>
				</g>
				<g>
					<g>
						<path fill="#FFFFFF" d="M56.137,73.825c7.576,0,15.152,0,22.729,0c2.577,0,2.577-4,0-4c-7.577,0-15.153,0-22.729,0
							C53.557,69.825,53.557,73.825,56.137,73.825L56.137,73.825z"/>
					</g>
				</g>
			</g>
		</g>
	</g>
	<g id="menu-light-active">
		<g id="menu-active-invert">
			<g id="menu_3_">
				<g>
					<polygon fill="#FFFFFF" points="90.001,64.939 112.501,51.951 135.001,64.939 135.001,90.915 112.501,103.902 90.001,90.915 
											"/>
				</g>
			</g>
			<g>
				<g>
					<g>
						<path fill="#2D2D2D" d="M101.137,79.927c7.575,0,15.152,0,22.729,0c2.576,0,2.576-4,0-4c-7.576,0-15.153,0-22.729,0
							C98.557,75.927,98.557,79.927,101.137,79.927L101.137,79.927z"/>
					</g>
				</g>
				<g>
					<g>
						<path fill="#2D2D2D" d="M101.137,86.028c7.575,0,15.152,0,22.729,0c2.576,0,2.576-4,0-4c-7.576,0-15.153,0-22.729,0
							C98.557,82.028,98.557,86.028,101.137,86.028L101.137,86.028z"/>
					</g>
				</g>
				<g>
					<g>
						<path fill="#2D2D2D" d="M101.137,73.825c7.575,0,15.152,0,22.729,0c2.576,0,2.576-4,0-4c-7.576,0-15.153,0-22.729,0
							C98.557,69.825,98.557,73.825,101.137,73.825L101.137,73.825z"/>
					</g>
				</g>
			</g>
		</g>
	</g>
	<g id="mail-dark-active">
		<g id="Mail_1_">
			<polygon fill="#2D2D2D" points="135.001,12.988 157.501,0 180.001,12.988 180.001,38.963 157.501,51.951 135.001,38.963 			"/>
			<path fill="none" stroke="#FFFFFF" stroke-width="2" stroke-miterlimit="10" d="M171.729,36.181h-28.454v-20.41h28.454V36.181z
				 M143.275,15.771l14.229,10.205l14.229-10.205"/>
		</g>
	</g>
	<g id="mail-light-active">
		<g id="Mail-inver-active">
			<polygon fill="#FFFFFF" points="135.001,116.89 157.501,103.902 180.001,116.89 180.001,142.866 157.501,155.854 
				135.001,142.866 			"/>
			<path fill="none" stroke="#2D2D2D" stroke-width="2" stroke-miterlimit="10" d="M171.729,140.083h-28.454v-20.41h28.454V140.083z
				 M143.275,119.673l14.229,10.205l14.229-10.205"/>
		</g>
	</g>
	<g id="design-type">
		<g id="Web_1_">
			<polygon fill="#636464" points="270.002,116.891 292.502,103.902 315.002,116.891 315.002,142.866 292.502,155.854 
				270.002,142.866 			"/>
			<path fill="none" stroke="#FFFFFF" d="M300.264,116.561v1.709h-15.16v22.892h-2.391v-24.601H300.264L300.264,116.561z
				 M285.104,118.27v24.601h17.549V118.27H285.104z M300.713,120.565h-13.138v2.25h13.138V120.565z M300.713,138.261h-13.138v2.25
				h13.138V138.261z M291.163,122.815h-3.588v15.445h3.588V122.815z M300.713,122.815h-9.55v3.648h9.55V122.815z M300.713,126.464
				h-9.55v11.797h9.55V126.464z"/>
		</g>
		<g id="Print_1_">
			<polygon fill="#636464" points="225.002,116.89 247.502,103.902 270.002,116.89 270.002,142.866 247.502,155.854 
				225.002,142.866 			"/>
			<path id="printer_1_" fill="none" stroke="#FFFFFF" stroke-miterlimit="10" d="M258.244,133.742h-23.206v-13.866h23.206V133.742z
				 M250.551,133.742h-15.513v8.435h15.513V133.742z M258.244,133.742h-7.693v8.435h7.693V133.742z M258.244,122.917h-4.525v10.825
				h4.525V122.917z M235.038,119.876l23.206-3.204 M258.244,119.876h-23.206v3.041h23.206V119.876z M258.244,122.917h3.189"/>
		</g>
		<g id="Drawn_1_">
			<polygon fill="#636464" points="202.504,103.902 180.002,116.892 180.002,142.867 202.504,155.854 225.002,142.867 
				225.002,116.892 			"/>
			<g id="PENCIL_1_">
				<polygon fill="none" stroke="#FFFFFF" stroke-miterlimit="10" points="199.396,141.355 199.391,141.355 199.391,138.361 
					194.32,133.292 191.321,133.292 208.278,116.337 208.288,116.337 210.573,116.536 210.828,116.787 215.905,121.853 
					216.156,122.104 216.354,124.391 216.361,124.395 				"/>
				<polygon fill="none" stroke="#FFFFFF" stroke-miterlimit="10" points="216.361,124.395 199.396,141.355 199.391,141.355 
					199.391,138.361 214.229,123.528 215.905,121.853 216.156,122.104 216.354,124.391 				"/>
				<polygon fill="none" stroke="#FFFFFF" stroke-miterlimit="10" points="210.828,116.787 194.32,133.292 191.321,133.292 
					208.278,116.337 208.288,116.337 210.573,116.536 				"/>
				<polygon fill="none" stroke="#FFFFFF" stroke-miterlimit="10" points="215.905,121.853 214.229,123.528 199.391,138.361 
					194.32,133.292 210.828,116.787 				"/>
				<polygon fill="none" stroke="#FFFFFF" stroke-miterlimit="10" points="199.391,138.361 199.391,141.355 194.597,142.037 
					190.639,138.087 191.321,133.292 194.32,133.292 				"/>
				<polygon fill="none" stroke="#FFFFFF" stroke-miterlimit="10" points="194.597,142.037 189.987,142.689 190.639,138.087 				"/>
			</g>
		</g>
	</g>
	<g id="mail-light">
		<g id="Mail-invert">
			<g>
				<path fill="#FFFFFF" d="M157.501,54.26l20.5,11.833V89.76l-20.5,11.833l-20.5-11.833V66.094L157.501,54.26 M157.501,51.951
					l-22.5,12.984v25.979l22.5,12.984l22.5-12.984V64.939L157.501,51.951L157.501,51.951z"/>
			</g>
			<path fill="none" stroke="#FFFFFF" stroke-width="2" stroke-miterlimit="10" d="M171.729,88.132h-28.454v-20.41h28.454V88.132z
				 M143.275,67.722l14.229,10.205l14.229-10.205"/>
		</g>
	</g>
	<g id="arrowdown_1_">
		<g id="arrowdown">
			<g>
				<path fill="#FFFFFF" d="M202.502,2.309l20.5,11.833v23.666l-20.5,11.833l-20.5-11.833V14.143L202.502,2.309 M202.502,0
					l-22.5,12.984v25.979l22.5,12.988l22.5-12.988V12.988L202.502,0L202.502,0z"/>
			</g>
			<polyline fill="none" stroke="#FFFFFF" stroke-width="2" stroke-miterlimit="10" points="219.807,22.369 202.502,32.357 
				185.828,22.369 			"/>
		</g>
	</g>
	<g id="arrowup_1_">
		<g id="arrowup">
			<g>
				<path fill="#FFFFFF" d="M202.502,54.26l20.5,11.833V89.76l-20.5,11.833l-20.5-11.834V66.095L202.502,54.26 M202.502,51.951
					l-22.5,12.984v25.979l22.5,12.984l22.5-12.984V64.939L202.502,51.951L202.502,51.951z"/>
			</g>
			<polyline fill="none" stroke="#FFFFFF" stroke-width="2" stroke-miterlimit="10" points="219.807,81.534 202.502,71.546 
				185.828,81.534 			"/>
		</g>
	</g>
	<g id="arrowleft_1_">
		<g id="arrowleft">
			<g>
				<path fill="#FFFFFF" d="M302.736,3.968l10.099,17.488l-10.099,17.487h-20.188l-10.096-17.485l10.096-17.49H302.736
					 M303.892,1.968h-22.5l-11.25,19.488l11.25,19.487h22.5l11.25-19.487L303.892,1.968L303.892,1.968z"/>
			</g>
			<polyline fill="none" stroke="#FFFFFF" stroke-width="2" stroke-miterlimit="10" points="295.766,6.469 287.115,21.458 
				295.766,35.9 			"/>
		</g>
	</g>
	<g id="arrowright_1_">
		<g id="arrowright_2_">
			<g>
				<path fill="#FFFFFF" d="M302.736,42.446l10.099,17.489l-10.099,17.49h-20.188l-10.096-17.49l10.096-17.489H302.736
					 M303.892,40.446h-22.5l-11.25,19.489l11.25,19.49h22.5l11.25-19.49L303.892,40.446L303.892,40.446z"/>
			</g>
			<polyline fill="none" stroke="#FFFFFF" stroke-width="2" stroke-miterlimit="10" points="289.518,44.947 298.169,59.937 
				289.518,74.38 			"/>
		</g>
	</g>
	<g id="arrowright-dark">
		<g id="arrowright-fill_1_">
			<g>
				<polygon fill="#636464" points="236.391,79.927 225.141,60.437 236.391,40.946 258.891,40.946 270.141,60.437 258.891,79.927 
									"/>
			</g>
			<polyline fill="none" stroke="#FFFFFF" stroke-width="2" stroke-miterlimit="10" points="244.518,45.447 253.168,60.437 
				244.518,74.88 			"/>
		</g>
	</g>
	<g id="empty">
		<g id="empty-fill">
			<path fill="#FFFFFF" d="M22.501,2.309L43,14.143v23.666L22.501,49.642L2,37.809V14.143L22.501,2.309 M22.501,0L0,12.988v25.979
				l22.501,12.988L45,38.963V12.988L22.501,0L22.501,0z"/>
		</g>
		<g id="empty-invert_1_">
			<polygon fill="#FFFFFF" points="0,64.971 22.501,51.983 45,64.971 45,90.947 22.501,103.935 0,90.947 			"/>
		</g>
		<g id="empty-fill-dark">
			<polygon fill="#636464" points="0,116.89 22.501,103.902 45,116.89 45,142.866 22.501,155.854 0,142.866 			"/>
		</g>
	</g>
	<g id="look">
		<polygon fill="#636464" points="45.002,116.89 67.503,103.902 90.002,116.89 90.002,142.866 67.503,155.854 45.002,142.866 		"/>
		<g>
			<circle fill="none" stroke="#FFFFFF" stroke-width="2" stroke-miterlimit="10" cx="67.502" cy="129.878" r="5.353"/>
			<path fill="none" stroke="#FFFFFF" stroke-width="2" stroke-miterlimit="10" d="M82.936,129.868
				c-0.508,1.092-1.255,2.106-2.188,3.024c-2.941,2.871-7.78,4.742-13.25,4.742c-5.454,0-10.278-1.861-13.226-4.715
				c-0.94-0.916-1.689-1.937-2.205-3.023c0.69-1.487,1.823-2.844,3.284-3.985c2.975-2.328,7.315-3.795,12.157-3.795
				c4.847,0,9.196,1.473,12.17,3.807C81.124,127.056,82.245,128.396,82.936,129.868z"/>
		</g>
	</g>
	<polygon fill="#636464" points="90.002,116.89 112.503,103.902 135.002,116.89 135.002,142.866 112.503,155.854 90.002,142.866 	
		"/>
	<g>
		<path fill="#FFFFFF" d="M101.671,140.878c9.664,0,7.792,0,17.457,0c3.292,0,3.292-4,0-4c-9.665,0-7.792,0-17.457,0
			C98.38,136.878,98.38,140.878,101.671,140.878L101.671,140.878z"/>
		<path fill="#FFFFFF" d="M101.137,128.878c7.575,0,15.152,0,22.729,0c2.577,0,2.577-4,0-4c-7.576,0-15.153,0-22.729,0
			C98.557,124.878,98.557,128.878,101.137,128.878L101.137,128.878z"/>
		<path fill="#FFFFFF" d="M101.137,134.878c7.575,0,15.152,0,22.729,0c2.577,0,2.577-4,0-4c-7.576,0-15.153,0-22.729,0
			C98.557,130.878,98.557,134.878,101.137,134.878L101.137,134.878z"/>
		<path fill="#FFFFFF" d="M101.137,122.878c7.575,0,15.152,0,22.729,0c2.577,0,2.577-4,0-4c-7.576,0-15.153,0-22.729,0
			C98.557,118.878,98.557,122.878,101.137,122.878L101.137,122.878z"/>
	</g>
	<g>
		<g>
			<path fill="#FFFFFF" d="M112.502,2.311l20.5,11.833v23.665l-20.5,11.834l-20.5-11.834V14.144L112.502,2.311 M112.502,0.001
				l-22.5,12.985v25.978l22.5,12.988l22.5-12.988V12.99L112.502,0.001L112.502,0.001z"/>
		</g>
		<path fill="none" stroke="#FFFFFF" stroke-width="2" d="M116.094,20.671l-10.496,6.747l-6.905,8.085l9.238-0.608l1.197-2.592
			l9.94-6.393l2.855-0.015l4.386-8.152L116.094,20.671z M115.834,17.841l-1.382,0.888l-9.944,6.395l-1.379,0.887l2.469,1.41
			l10.496-6.747L115.834,17.841z M115.834,17.841l0.26,2.83l10.218-2.928L115.834,17.841z M110.517,16.449l-6.446,4.146l0.438,4.525
			l9.944-6.395L110.517,16.449z M117.6,28.677l-5.344,3.435l2.444,2.989l4.604-2.96L117.6,28.677z M103.129,26.008l-4.438,9.495
			l6.905-8.085L103.129,26.008z M121.926,25.898l-2.621,6.243l-1.705-3.464l-5.344,3.435l2.444,2.989l-6.771-0.206l1.197-2.592
			l9.94-6.393L121.926,25.898z"/>
	</g>
</g>
<g id="sliderUI">
	
		<rect x="-321.928" y="203.422" display="none" stroke="#FFFFFF" stroke-width="2" stroke-miterlimit="10" width="96" height="73.894"/>
	<g id="arrowleft-dark_1_">
		<g id="arrowleft-fill_2_">
			<g>
				<polygon fill="#636464" points="-297.928,231.14 -289.928,217.282 -297.928,203.423 -313.928,203.423 -321.928,217.282 
					-313.928,231.14 				"/>
			</g>
			<polyline fill="none" stroke="#FFFFFF" stroke-width="2" stroke-miterlimit="10" points="-303.706,206.623 -309.859,217.282 
				-303.706,227.552 			"/>
		</g>
	</g>
	<g id="arrowleft-dark">
		<g id="arrowleft-fill_1_">
			<g>
				<polygon fill="#636464" points="258.752,40.946 270.002,21.458 258.752,1.968 236.252,1.968 225.002,21.458 236.252,40.946 				
					"/>
			</g>
			<polyline fill="none" stroke="#FFFFFF" stroke-width="2" stroke-miterlimit="10" points="250.627,6.469 241.975,21.458 
				250.627,35.9 			"/>
		</g>
	</g>
	<g id="arrowright-dark_1_">
		<g id="arrowright-fill_2_">
			<g>
				<polygon fill="#636464" points="-313.928,258.86 -321.928,245 -313.928,231.14 -297.928,231.14 -289.928,245 -297.928,258.86 
									"/>
			</g>
			<polyline fill="none" stroke="#FFFFFF" stroke-width="2" stroke-miterlimit="10" points="-308.149,234.34 -301.998,245 
				-308.149,255.271 			"/>
		</g>
	</g>
	<g id="fullscreen1">
		<g id="empty-fill-dark_1_">
			<polygon fill="#636464" points="-257.928,212.663 -241.928,203.427 -225.928,212.663 -225.928,231.136 -241.928,240.371 
				-257.928,231.136 			"/>
		</g>
		<polygon fill="#FFFFFF" points="-234.364,214.366 -234.364,221.226 -236.364,221.226 -236.364,217.777 -240.283,221.697 
			-241.694,220.277 -237.783,216.366 -241.234,216.366 -241.234,214.366 		"/>
		<polygon fill="#FFFFFF" points="-249.493,229.433 -249.493,222.573 -247.493,222.573 -247.493,226.023 -243.573,222.103 
			-242.163,223.523 -246.073,227.433 -242.623,227.433 -242.623,229.433 		"/>
	</g>
	<g id="fullscreenin">
		<g id="empty-fill-dark_2_">
			<polygon fill="#636464" points="-257.928,249.608 -241.928,240.371 -225.928,249.608 -225.928,268.08 -241.928,277.316 
				-257.928,268.08 			"/>
		</g>
		<polygon fill="#FFFFFF" points="-241.694,258.641 -241.694,251.781 -239.694,251.781 -239.694,255.231 -235.774,251.311 
			-234.364,252.731 -238.274,256.641 -234.823,256.641 -234.823,258.641 		"/>
		<polygon fill="#FFFFFF" points="-242.163,259.047 -242.163,265.906 -244.163,265.906 -244.163,262.457 -248.083,266.377 
			-249.493,264.957 -245.583,261.047 -249.033,261.047 -249.033,259.047 		"/>
	</g>
</g>
</svg>
