<?xml version="1.0" encoding="utf-8"?>
<!-- Generator: Adobe Illustrator 15.0.0, SVG Export Plug-In . SVG Version: 6.00 Build 0)  -->
<!DOCTYPE svg PUBLIC "-//W3C//DTD SVG 1.1//EN" "http://www.w3.org/Graphics/SVG/1.1/DTD/svg11.dtd">
<svg version="1.1" id="Layer_1" xmlns="http://www.w3.org/2000/svg" xmlns:xlink="http://www.w3.org/1999/xlink" x="0px" y="0px"
	 width="45px" height="52px" viewBox="0 0 45 52" enable-background="new 0 0 45 52" xml:space="preserve">
<g id="logo">
	<polygon fill="#636464" points="38.7,18.8 45,22.4 45,39 22.5,52 0,39 0,13 22.5,0 38.7,9.4 	"/>
	<polygon fill="#999999" points="45,13 45,22.4 38.7,9.4 	"/>
	<polygon fill="#2D2D2D" points="45,22.4 38.7,18.8 38.7,9.4 	"/>
	<g>
		<path fill="#FFFFFF" d="M25.2,27.2v6.5h10.9v3.6H21.4v-6.4c-1.2,4.7-7.8,6.4-7.8,6.4H8.9v-3.5c8.7,0.7,9.3-5.2,9.3-5.2V17.1h-6.3
			v-3.7h10.2v0l13.9,0v3.7H25.2v6.6h10.9v3.5H25.2z"/>
	</g>
</g>
</svg>
