<?xml version="1.0" encoding="iso-8859-1"?>
<!-- Generator: Adobe Illustrator 15.0.0, SVG Export Plug-In . SVG Version: 6.00 Build 0)  -->
<!DOCTYPE svg PUBLIC "-//W3C//DTD SVG 1.1//EN" "http://www.w3.org/Graphics/SVG/1.1/DTD/svg11.dtd">
<svg version="1.1" id="Layer_1" xmlns="http://www.w3.org/2000/svg" xmlns:xlink="http://www.w3.org/1999/xlink" x="0px" y="0px"
	 width="900px" height="207.807px" viewBox="0 0 900 207.807" style="enable-background:new 0 0 900 207.807;" xml:space="preserve"
	>
<style type="text/css">
<![CDATA[
]]>
</style>
<g id="Visual_1_">
	<polygon style="fill:#2D2D2D;" points="0,129.879 45,103.904 90,129.879 90,181.831 45,207.807 0,181.831 	"/>
	<path style="fill:#2D2D2D;stroke:#FFFFFF;stroke-width:2;stroke-miterlimit:10;" d="M78.642,155.837
		c-1.016,2.182-2.509,4.217-4.383,6.053c-5.881,5.741-15.559,9.486-26.5,9.486c-10.908,0-20.556-3.723-26.444-9.432
		c-1.886-1.83-3.384-3.866-4.411-6.046c1.381-2.979,3.645-5.687,6.569-7.977c5.942-4.655,14.631-7.589,24.313-7.589
		c9.694,0,18.394,2.945,24.341,7.61C75.019,150.212,77.261,152.892,78.642,155.837z"/>
	<circle style="fill:#2D2D2D;stroke:#FFFFFF;stroke-width:2;stroke-miterlimit:10;" cx="47.773" cy="155.855" r="10.705"/>
</g>
<g>
	<polygon style="fill:#636464;" points="0,25.976 45,0 90,25.976 90,77.927 45,103.902 0,77.927 	"/>
	<text transform="matrix(1 0 0 1 8.2534 58.9248)" style="fill:#FFFFFF; font-family:'ShareTechMono-Regular'; font-size:22.6829;">DESIGN</text>
</g>
<g id="blank_1_">
	<polygon style="fill:#2D2D2D;" points="720,129.879 765,103.904 810,129.879 810,181.831 765,207.807 720,181.831 	"/>
</g>
<g id="Web_1_">
	<polygon style="fill:#636464;" points="630,129.879 675,103.904 720,129.879 720,181.831 675,207.807 630,181.831 	"/>
	<path style="fill:none;stroke:#FFFFFF;stroke-width:2;" d="M690.524,129.22v3.417h-30.321v45.776h-4.779V129.22H690.524z
		 M660.203,132.637v49.193h35.099v-49.193H660.203z M691.422,137.229h-26.275v4.501h26.275V137.229z M691.422,172.622h-26.275v4.5
		h26.275V172.622z M672.323,141.73h-7.177v30.892h7.177V141.73z M691.422,141.73h-19.099v7.297h19.099V141.73z M691.422,149.027
		h-19.099v23.595h19.099V149.027z"/>
</g>
<g id="Print_1_">
	<polygon style="fill:#636464;" points="540,129.879 585,103.904 630,129.879 630,181.831 585,207.807 540,181.831 	"/>
	<path id="printer_1_" style="fill:none;stroke:#FFFFFF;stroke-width:2;stroke-miterlimit:10;" d="M606.482,163.583h-46.41v-27.731
		h46.41V163.583z M591.098,163.583h-31.025v16.87h31.025V163.583z M606.482,163.583h-15.385v16.87h15.385V163.583z M606.482,141.932
		h-9.048v21.65h9.048V141.932z M560.072,135.851l46.41-6.406 M606.482,135.851h-46.41v6.081h46.41V135.851z M606.482,141.932h6.387"
		/>
</g>
<g id="Drawn_1_">
	<polygon style="fill:#636464;" points="495.004,103.904 450,129.883 450,181.834 495.004,207.807 540,181.834 540,129.883 	"/>
	<g id="PENCIL_1_">
		<polygon style="fill:none;stroke:#FFFFFF;stroke-miterlimit:10;" points="488.789,178.811 488.776,178.811 488.776,172.822 
			478.635,162.683 472.639,162.683 506.553,128.774 506.573,128.774 511.141,129.17 511.65,129.673 521.805,139.804 
			522.308,140.307 522.703,144.88 522.718,144.887 		"/>
		<polygon style="fill:none;stroke:#FFFFFF;stroke-miterlimit:10;" points="522.718,144.887 488.789,178.811 488.776,178.811 
			488.776,172.822 518.453,143.155 521.805,139.804 522.308,140.307 522.703,144.88 		"/>
		<polygon style="fill:none;stroke:#FFFFFF;stroke-miterlimit:10;" points="511.65,129.673 478.635,162.683 472.639,162.683 
			506.553,128.774 506.573,128.774 511.141,129.17 		"/>
		<polygon style="fill:none;stroke:#FFFFFF;stroke-miterlimit:10;" points="521.805,139.804 518.453,143.155 488.776,172.822 
			478.635,162.683 511.65,129.673 		"/>
		<polygon style="fill:none;stroke:#FFFFFF;stroke-miterlimit:10;" points="488.776,172.822 488.776,178.811 479.189,180.174 
			471.272,172.274 472.639,162.683 478.635,162.683 		"/>
		<polygon style="fill:none;stroke:#FFFFFF;stroke-miterlimit:10;" points="479.189,180.174 469.971,181.478 471.272,172.274 		"/>
	</g>
</g>
<g id="Audio_1_">
	<polygon style="fill:#2D2D2D;" points="360,129.879 405,103.904 450,129.879 450,181.831 405,207.807 360,181.831 	"/>
	<circle style="fill:none;stroke:#FFFFFF;stroke-miterlimit:10;" cx="405" cy="155.855" r="12.386"/>
	
		<ellipse style="fill:none;stroke:#FFFFFF;stroke-width:1.5;stroke-miterlimit:10;" cx="405" cy="155.855" rx="23.088" ry="23.083"/>
	<ellipse style="fill:none;stroke:#FFFFFF;stroke-width:2;stroke-miterlimit:10;" cx="405" cy="155.855" rx="32.094" ry="32.087"/>
</g>
<g id="Popdrone_1_">
	<polygon style="fill:#636464;" points="270,129.879 315,103.904 360,129.879 360,181.831 315,207.807 270,181.831 	"/>
	<polygon style="fill:none;stroke:#FFFFFF;stroke-width:2;stroke-miterlimit:10;" points="285.01,175.608 315,123.663 
		344.99,175.608 	"/>
</g>
<g id="Psyyyduckkk_1_">
	<polygon style="fill:#636464;" points="180,129.879 225,103.904 270,129.879 270,181.831 225,207.807 180,181.831 	"/>
	<polygon style="fill:none;stroke:#FFFFFF;stroke-width:2;stroke-miterlimit:10;" points="243.048,129.879 198.171,144.692 
		231.098,159.571 198.171,173.473 243.048,181.831 	"/>
</g>
<g id="Video_1_">
	<polygon style="fill:#2D2D2D;" points="90,129.879 135,103.904 180,129.879 180,181.831 135,207.807 90,181.831 	"/>
	<path style="fill:#2D2D2D;stroke:#FFFFFF;stroke-width:2;stroke-miterlimit:10;" d="M125.554,146.01v-9.407h35.819v26.077h-35.819
		v-16.57 M105.409,134.379v23.36l10.115-5.84v-11.68L105.409,134.379z M128.747,162.68l-5.122,16.288l-2.538,2.338v1.146h14.878
		l6.117-19.772H128.747z M161.373,140.896v5.098l3.218,1.857v-8.812L161.373,140.896z M115.524,139.04v14.041h4.489V139.04H115.524z
		 M120.013,139.542v12.967h2.579v-12.967H120.013z M122.592,139.899v12.107h2.961v-12.107H122.592z"/>
</g>
<g id="Photography_1_">
	<polygon style="fill:#2D2D2D;" points="810,129.879 855,103.904 900,129.879 900,181.831 855,207.807 810,181.831 	"/>
	<g id="camera_1_">
		
			<rect x="829.756" y="136.403" style="fill:none;stroke:#FFFFFF;stroke-width:2;stroke-miterlimit:10;" width="51.22" height="41.341"/>
		<path style="fill:none;stroke:#FFFFFF;stroke-width:2;stroke-miterlimit:10;" d="M874.69,157.074
			c0,10.675-8.649,19.331-19.324,19.331c-10.676,0-19.332-8.656-19.332-19.331c0-4.105,1.28-7.91,3.469-11.034
			c3.489-5.013,9.293-8.291,15.863-8.291c6.571,0,12.373,3.278,15.855,8.291C873.41,149.164,874.69,152.968,874.69,157.074z"/>
		
			<rect x="844.287" y="128.112" style="fill:none;stroke:#FFFFFF;stroke-width:2;stroke-miterlimit:10;" width="22.153" height="8.294"/>
		
			<rect x="847.863" y="131.103" style="fill:none;stroke:#FFFFFF;stroke-width:2;stroke-miterlimit:10;" width="15" height="2.651"/>
		<path style="fill:none;stroke:#FFFFFF;stroke-width:2;stroke-miterlimit:10;" d="M871.222,146.04
			c-3.482-5.013-9.284-8.291-15.855-8.291c-6.57,0-12.374,3.278-15.863,8.291c-2.188,3.124-3.469,6.929-3.469,11.034
			c0,10.675,8.656,19.331,19.332,19.331c10.675,0,19.324-8.656,19.324-19.331C874.69,152.968,873.41,149.164,871.222,146.04z"/>
		<path style="fill:none;stroke:#FFFFFF;stroke-miterlimit:10;" d="M855.366,173.478c-9.058,0-16.405-7.347-16.405-16.404
			c0-4.244,1.618-8.123,4.28-11.034c2.994-3.293,7.317-5.364,12.125-5.364s9.124,2.071,12.124,5.364
			c2.657,2.911,4.273,6.79,4.273,11.034C871.764,166.131,864.425,173.478,855.366,173.478z"/>
		
			<rect x="831.806" y="133.162" style="fill:none;stroke:#FFFFFF;stroke-width:2;stroke-miterlimit:10;" width="5.305" height="3.244"/>
		<path style="fill:none;stroke:#FFFFFF;stroke-width:2;stroke-miterlimit:10;" d="M880.976,136.403v9.637h-9.754
			c-3.482-5.013-9.284-8.291-15.855-8.291c-6.57,0-12.374,3.278-15.863,8.291h-9.747v-9.637H880.976z"/>
	</g>
</g>
<g id="print">
	<polygon style="fill:#2D2D2D;" points="540,25.976 585,0 630,25.976 630,77.927 585,103.902 540,77.927 	"/>
	
		<text transform="matrix(1 0 0 1 554.3779 58.9248)" style="fill:#FFFFFF; font-family:'ShareTechMono-Regular'; font-size:22.6829;">PRINT</text>
</g>
<g id="web">
	<polygon style="fill:#2D2D2D;" points="630,25.976 675,0 720,25.976 720,77.927 675,103.902 630,77.927 	"/>
	
		<text transform="matrix(1 0 0 1 656.626 58.9248)" style="fill:#FFFFFF; font-family:'ShareTechMono-Regular'; font-size:22.6829;">WEB</text>
</g>
<g id="blank">
	<polygon style="fill:#636464;" points="720,25.976 765,0 810,25.976 810,77.927 765,103.902 720,77.927 	"/>
</g>
<g id="photo">
	<polygon style="fill:#636464;" points="810,25.975 855.002,-0.001 900,25.975 900,77.927 855.002,103.903 810,77.927 	"/>
	
		<text transform="matrix(1 0 0 1 824.3779 58.9268)" style="fill:#FFFFFF; font-family:'ShareTechMono-Regular'; font-size:22.6833;">PHOTO</text>
</g>
<g id="exp_1_">
	<polygon style="fill:#2D2D2D;" points="180,25.976 225,0 270,25.976 270,77.926 225,103.902 180,77.926 	"/>
	
		<text transform="matrix(1 0 0 1 182.3267 56.4502)" style="fill:#FFFFFF; font-family:'ShareTechMono-Regular'; font-size:13.1707;">EXPERIMENTAL</text>
</g>
<g id="pop_1_">
	<polygon style="fill:#2D2D2D;" points="270,25.976 315,0 360,25.976 360,77.926 315,103.902 270,77.926 	"/>
	
		<text transform="matrix(1 0 0 1 283.3896 56.4502)" style="fill:#FFFFFF; font-family:'ShareTechMono-Regular'; font-size:14.6341;">POPDRONE</text>
</g>
<g id="audio">
	<polygon style="fill:#636464;" points="360,25.976 405,0 450,25.976 450,77.927 405,103.902 360,77.927 	"/>
	
		<text transform="matrix(1 0 0 1 374.3779 58.9248)" style="fill:#FFFFFF; font-family:'ShareTechMono-Regular'; font-size:22.6829;">AUDIO</text>
</g>
<g id="draft">
	<polygon style="fill:#2D2D2D;" points="450,25.976 495,0 540,25.976 540,77.927 495,103.902 450,77.927 	"/>
	
		<text transform="matrix(1 0 0 1 464.377 58.9248)" style="fill:#FFFFFF; font-family:'ShareTechMono-Regular'; font-size:22.6829;">DRAFT</text>
</g>
<g id="video">
	<g id="blank_2_">
		<polygon style="fill:#636464;" points="90,25.976 135,0 180,25.976 180,77.927 135,103.902 90,77.927 		"/>
	</g>
	
		<text transform="matrix(1 0 0 1 104.3784 58.9258)" style="fill:#F1F2F2; font-family:'ShareTechMono-Regular'; font-size:22.6829;">VIDEO</text>
</g>
</svg>
