<?xml version="1.0" encoding="utf-8"?>
<!-- Generator: Adobe Illustrator 15.0.0, SVG Export Plug-In . SVG Version: 6.00 Build 0)  -->
<!DOCTYPE svg PUBLIC "-//W3C//DTD SVG 1.1//EN" "http://www.w3.org/Graphics/SVG/1.1/DTD/svg11.dtd">
<svg version="1.1" id="Layer_1" xmlns="http://www.w3.org/2000/svg" xmlns:xlink="http://www.w3.org/1999/xlink" x="0px" y="0px"
	 width="540px" height="311.709px" viewBox="-90 -51.951 540 311.709" enable-background="new -90 -51.951 540 311.709"
	 xml:space="preserve">
<g id="Visual">
	<polygon fill="#2D2D2D" points="-90,142.866 -22.5,103.905 45,142.866 45,220.796 -22.5,259.758 -90,220.796 	"/>
	<g>
		<path fill="#2D2D2D" stroke="#FFFFFF" stroke-width="2" stroke-miterlimit="10" d="M23.804,181.807
			c-1.524,3.271-3.764,6.324-6.575,9.078c-8.821,8.612-23.338,14.23-39.75,14.23c-16.361,0-30.833-5.588-39.666-14.15
			c-2.828-2.742-5.075-5.797-6.616-9.069c2.072-4.468,5.468-8.53,9.854-11.965c8.912-6.983,21.945-11.384,36.469-11.384
			c14.541,0,27.592,4.416,36.512,11.413C18.369,173.369,21.732,177.389,23.804,181.807z"/>
		<circle fill="#2D2D2D" stroke="#FFFFFF" stroke-width="2" stroke-miterlimit="10" cx="-22.5" cy="181.833" r="16.058"/>
	</g>
</g>
<g id="Audio_1_">
	<polygon fill="#2D2D2D" points="180,142.866 247.5,103.905 315,142.866 315,220.796 247.5,259.758 180,220.796 	"/>
	<circle fill="none" stroke="#FFFFFF" stroke-miterlimit="10" cx="247.5" cy="181.831" r="18.58"/>
	
		<ellipse fill="none" stroke="#FFFFFF" stroke-width="1.5" stroke-miterlimit="10" cx="247.5" cy="181.83" rx="34.625" ry="34.625"/>
	<ellipse fill="none" stroke="#FFFFFF" stroke-width="2" stroke-miterlimit="10" cx="247.5" cy="181.83" rx="48.141" ry="48.13"/>
</g>
<g id="Video_1_">
	<polygon fill="#2D2D2D" points="45,142.866 112.5,103.905 180,142.866 180,220.796 112.5,259.758 45,220.796 	"/>
	<path fill="#2D2D2D" stroke="#FFFFFF" stroke-width="2" stroke-miterlimit="10" d="M98.331,167.063v-14.109h53.729v39.114H98.331
		v-24.855 M68.113,149.616v35.042l15.173-8.763v-17.52L68.113,149.616z M103.121,192.068l-7.684,24.434l-3.807,3.507v1.72h22.316
		l9.176-29.66H103.121z M152.06,159.393v7.649l4.827,2.783v-13.219L152.06,159.393z M83.286,156.61v21.062h6.733V156.61H83.286z
		 M90.02,157.363v19.45h3.868v-19.45H90.02z M93.888,157.896v18.161h4.442v-18.161H93.888z"/>
</g>
<g id="Photography_1_">
	<polygon fill="#2D2D2D" points="315,142.866 382.5,103.905 450,142.866 450,220.796 382.5,259.758 315,220.796 	"/>
	<g id="camera_1_">
		
			<rect x="344.634" y="152.652" fill="none" stroke="#FFFFFF" stroke-width="2" stroke-miterlimit="10" width="76.831" height="62.016"/>
		<path fill="none" stroke="#FFFFFF" stroke-width="2" stroke-miterlimit="10" d="M412.034,183.659
			c0,16.014-12.973,28.995-28.985,28.995c-16.015,0-28.998-12.981-28.998-28.995c0-6.158,1.921-11.865,5.203-16.55
			c5.234-7.523,13.939-12.437,23.795-12.437c9.857,0,18.559,4.913,23.782,12.437C410.115,171.794,412.034,177.501,412.034,183.659z"
			/>
		
			<rect x="366.431" y="140.215" fill="none" stroke="#FFFFFF" stroke-width="2" stroke-miterlimit="10" width="33.229" height="12.445"/>
		
			<rect x="371.795" y="144.703" fill="none" stroke="#FFFFFF" stroke-width="2" stroke-miterlimit="10" width="22.5" height="3.976"/>
		<path fill="none" stroke="#FFFFFF" stroke-width="2" stroke-miterlimit="10" d="M406.834,167.11
			c-5.223-7.523-13.928-12.437-23.781-12.437c-9.855,0-18.562,4.913-23.795,12.437c-3.283,4.685-5.203,10.392-5.203,16.55
			c0,16.014,12.982,28.995,28.998,28.995c16.012,0,28.984-12.981,28.984-28.995C412.034,177.501,410.115,171.794,406.834,167.11z"/>
		<path fill="none" stroke="#FFFFFF" stroke-miterlimit="10" d="M383.049,208.266c-13.586,0-24.607-11.021-24.607-24.604
			c0-6.366,2.428-12.185,6.42-16.553c4.49-4.939,10.977-8.045,18.188-8.045c7.212,0,13.687,3.105,18.187,8.045
			c3.984,4.368,6.41,10.187,6.41,16.553C407.646,197.244,396.637,208.266,383.049,208.266z"/>
		
			<rect x="347.71" y="147.791" fill="none" stroke="#FFFFFF" stroke-width="2" stroke-miterlimit="10" width="7.957" height="4.866"/>
		<path fill="none" stroke="#FFFFFF" stroke-width="2" stroke-miterlimit="10" d="M421.465,152.652v14.458h-14.631
			c-5.223-7.521-13.928-12.437-23.781-12.437c-9.855,0-18.562,4.916-23.795,12.437h-14.621v-14.458H421.465z"/>
	</g>
</g>
<g id="design">
	<polygon fill="#636464" points="-90,-12.987 -22.5,-51.951 45,-12.987 45,64.94 -22.5,103.902 -90,64.94 	"/>
	<g id="design_1_" display="none" enable-background="new    ">
		<path display="inline" fill="#FFFFFF" d="M58.748,67.563c0,0.946-0.218,1.616-0.652,2.014c-0.436,0.396-1.152,0.594-2.153,0.594
			h-3.398V58.619h3.2c0.99,0,1.738,0.202,2.244,0.604s0.76,1.059,0.76,1.972V67.563z M57.312,67.728v-6.683
			c0-0.363-0.11-0.651-0.33-0.866c-0.221-0.215-0.512-0.321-0.875-0.321h-2.128v9.074h2.111c0.419,0,0.726-0.096,0.924-0.288
			S57.312,68.147,57.312,67.728z"/>
		<path display="inline" fill="#FFFFFF" d="M67.311,70.17h-5.512V58.619h5.512v1.205h-4.076v3.778h3.664v1.204h-3.664v4.157h4.076
			V70.17z"/>
		<path display="inline" fill="#FFFFFF" d="M76.253,67.365c0,0.936-0.255,1.638-0.767,2.105c-0.512,0.467-1.246,0.7-2.203,0.7H70.94
			v-1.254h2.509c0.405,0,0.735-0.12,0.989-0.363c0.253-0.24,0.379-0.533,0.379-0.874v-1.716c0-0.329-0.085-0.597-0.255-0.799
			c-0.17-0.204-0.427-0.306-0.768-0.306h-0.496c-0.814,0-1.457-0.239-1.93-0.718c-0.474-0.479-0.709-1.174-0.709-2.088v-0.627
			c0-0.935,0.256-1.636,0.768-2.104c0.511-0.467,1.244-0.702,2.202-0.702h2.358v1.255h-2.523c-0.406,0-0.736,0.121-0.99,0.362
			c-0.254,0.242-0.379,0.534-0.379,0.874v1.254c0,0.342,0.109,0.625,0.329,0.85c0.22,0.227,0.506,0.339,0.858,0.339h0.495
			c0.781,0,1.389,0.226,1.823,0.677c0.434,0.451,0.651,1.133,0.651,2.046V67.365z"/>
		<path display="inline" fill="#FFFFFF" d="M84.569,70.17h-4.405v-1.205h1.484v-9.141h-1.484v-1.205h4.405v1.205h-1.485v9.141h1.485
			V70.17z"/>
		<path display="inline" fill="#FFFFFF" d="M94.172,70.17h-2.821c-0.956,0-1.691-0.234-2.203-0.701
			c-0.511-0.468-0.767-1.17-0.767-2.105v-5.939c0-0.935,0.256-1.637,0.767-2.104c0.512-0.467,1.247-0.702,2.203-0.702h2.326v1.255
			h-2.491c-0.407,0-0.737,0.12-0.989,0.362c-0.253,0.242-0.38,0.534-0.38,0.874v6.567c0,0.341,0.126,0.633,0.38,0.874
			c0.252,0.242,0.582,0.363,0.989,0.363h1.617v-3.58h-1.436v-1.236h2.805V70.17L94.172,70.17z"/>
		<path display="inline" fill="#FFFFFF" d="M103.33,70.17h-2.359L98.38,59.84v10.33h-1.337V58.619h2.344l2.606,10.33v-10.33h1.337
			V70.17L103.33,70.17z"/>
	</g>
	<g id="portfolio">
		<path fill="#FFFFFF" d="M-64.269,24.295c0,2.212-1.19,3.318-3.569,3.318h-2.185v5.712h-1.827v-14.7h3.969
			c2.408,0,3.612,1.092,3.612,3.275V24.295z M-66.096,24.506v-2.794c0-0.532-0.123-0.917-0.367-1.155
			c-0.245-0.238-0.634-0.356-1.166-0.356h-2.394v5.838h2.394c0.532,0,0.921-0.123,1.166-0.367
			C-66.219,25.426-66.096,25.037-66.096,24.506z"/>
		<path fill="#FFFFFF" d="M-52.529,29.756c0,1.189-0.326,2.082-0.977,2.677s-1.586,0.893-2.805,0.893h-0.839
			c-1.219,0-2.153-0.298-2.804-0.893c-0.651-0.595-0.977-1.487-0.977-2.677v-7.561c0-1.19,0.325-2.082,0.977-2.678
			c0.65-0.595,1.585-0.893,2.804-0.893h0.839c1.219,0,2.154,0.298,2.805,0.893c0.65,0.596,0.977,1.487,0.977,2.678V29.756z
			 M-54.356,30.155v-8.358c0-0.434-0.161-0.805-0.483-1.113c-0.322-0.308-0.742-0.462-1.26-0.462h-1.26
			c-0.518,0-0.938,0.154-1.261,0.462c-0.322,0.309-0.482,0.68-0.482,1.113v8.358c0,0.434,0.16,0.805,0.482,1.113
			c0.322,0.308,0.743,0.462,1.261,0.462h1.26c0.518,0,0.938-0.154,1.26-0.462C-54.518,30.959-54.356,30.588-54.356,30.155z"/>
		<path fill="#FFFFFF" d="M-47.763,27.236v6.09h-1.827v-14.7h3.948c2.408,0,3.612,1.092,3.612,3.275v2.017
			c0,1.582-0.63,2.569-1.891,2.961l2.919,6.447h-1.995l-2.709-6.09H-47.763z M-43.856,24.127v-2.415
			c0-0.532-0.122-0.917-0.368-1.155c-0.245-0.238-0.633-0.356-1.165-0.356h-2.373v5.46h2.373c0.532,0,0.92-0.123,1.165-0.367
			C-43.979,25.048-43.856,24.659-43.856,24.127z"/>
		<path fill="#FFFFFF" d="M-29.809,20.221h-3.338v13.104h-1.827V20.221h-3.339v-1.596h8.504V20.221z"/>
		<path fill="#FFFFFF" d="M-19.14,20.158h-5.187v5.019h4.661v1.533h-4.661v6.615h-1.828v-14.7h7.015V20.158z"/>
		<path fill="#FFFFFF" d="M-7.17,29.756c0,1.189-0.326,2.082-0.977,2.677c-0.651,0.595-1.586,0.893-2.803,0.893h-0.842
			c-1.217,0-2.151-0.298-2.803-0.893c-0.65-0.595-0.977-1.487-0.977-2.677v-7.561c0-1.19,0.326-2.082,0.977-2.678
			c0.651-0.595,1.586-0.893,2.803-0.893h0.842c1.217,0,2.151,0.298,2.803,0.893c0.65,0.596,0.977,1.487,0.977,2.678V29.756z
			 M-8.997,30.155v-8.358c0-0.434-0.161-0.805-0.483-1.113c-0.322-0.308-0.742-0.462-1.26-0.462H-12
			c-0.519,0-0.938,0.154-1.26,0.462c-0.322,0.309-0.483,0.68-0.483,1.113v8.358c0,0.434,0.161,0.805,0.483,1.113
			c0.321,0.308,0.741,0.462,1.26,0.462h1.26c0.518,0,0.938-0.154,1.26-0.462C-9.158,30.959-8.997,30.588-8.997,30.155z"/>
		<path fill="#FFFFFF" d="M3.225,33.325h-6.51v-14.7h1.826V31.73h4.684V33.325z"/>
		<path fill="#FFFFFF" d="M14.103,33.325H8.496v-1.533h1.89V20.158h-1.89v-1.533h5.606v1.533h-1.89v11.634h1.89V33.325z"/>
		<path fill="#FFFFFF" d="M26.85,29.756c0,1.189-0.326,2.082-0.977,2.677c-0.651,0.595-1.586,0.893-2.803,0.893h-0.842
			c-1.217,0-2.151-0.298-2.803-0.893c-0.65-0.595-0.977-1.487-0.977-2.677v-7.561c0-1.19,0.326-2.082,0.977-2.678
			c0.651-0.595,1.586-0.893,2.803-0.893h0.842c1.217,0,2.151,0.298,2.803,0.893c0.65,0.596,0.977,1.487,0.977,2.678V29.756z
			 M25.022,30.155v-8.358c0-0.434-0.161-0.805-0.483-1.113c-0.322-0.308-0.742-0.462-1.26-0.462h-1.26
			c-0.519,0-0.938,0.154-1.26,0.462c-0.322,0.309-0.483,0.68-0.483,1.113v8.358c0,0.434,0.161,0.805,0.483,1.113
			c0.321,0.308,0.741,0.462,1.26,0.462h1.26c0.518,0,0.938-0.154,1.26-0.462C24.861,30.959,25.022,30.588,25.022,30.155z"/>
	</g>
</g>
<g id="photo">
	<polygon fill="#636464" points="315,-12.988 382.503,-51.952 450,-12.988 450,64.94 382.503,103.903 315,64.94 	"/>
	<g id="photo_1_" display="none" enable-background="new    ">
		<path display="inline" fill="#FFFFFF" d="M265.726,63.076c0,1.738-0.937,2.606-2.806,2.606h-1.717v4.488h-1.436v-11.55h3.119
			c1.893,0,2.839,0.859,2.839,2.575V63.076L265.726,63.076z M264.29,63.241v-2.194c0-0.418-0.097-0.721-0.29-0.908
			c-0.191-0.187-0.498-0.28-0.916-0.28h-1.881v4.587h1.881c0.418,0,0.725-0.096,0.916-0.288
			C264.193,63.965,264.29,63.659,264.29,63.241z"/>
		<path display="inline" fill="#FFFFFF" d="M274.784,70.171h-1.436v-5.312h-3.399v5.312h-1.436v-11.55h1.436v5.016h3.399v-5.016
			h1.436V70.171z"/>
		<path display="inline" fill="#FFFFFF" d="M283.859,67.366c0,0.935-0.257,1.637-0.767,2.104c-0.513,0.468-1.248,0.701-2.204,0.701
			h-0.66c-0.957,0-1.691-0.233-2.203-0.701s-0.768-1.17-0.768-2.104v-5.94c0-0.935,0.257-1.636,0.768-2.104
			c0.512-0.467,1.246-0.702,2.203-0.702h0.66c0.956,0,1.691,0.234,2.204,0.702c0.511,0.468,0.767,1.169,0.767,2.104V67.366z
			 M282.422,67.68v-6.567c0-0.341-0.126-0.632-0.379-0.874c-0.254-0.242-0.584-0.362-0.989-0.362h-0.99
			c-0.407,0-0.737,0.12-0.99,0.362s-0.38,0.533-0.38,0.874v6.567c0,0.341,0.127,0.633,0.38,0.874
			c0.253,0.243,0.583,0.363,0.99,0.363h0.99c0.405,0,0.735-0.12,0.989-0.363C282.296,68.313,282.422,68.021,282.422,67.68z"/>
		<path display="inline" fill="#FFFFFF" d="M292.801,59.875h-2.623v10.296h-1.436V59.875h-2.623V58.62h6.682V59.875z"/>
		<path display="inline" fill="#FFFFFF" d="M301.678,67.366c0,0.935-0.256,1.637-0.767,2.104c-0.513,0.468-1.247,0.701-2.203,0.701
			h-0.661c-0.956,0-1.689-0.233-2.201-0.701c-0.513-0.468-0.768-1.17-0.768-2.104v-5.94c0-0.935,0.255-1.636,0.768-2.104
			c0.512-0.467,1.245-0.702,2.201-0.702h0.661c0.955,0,1.69,0.234,2.203,0.702c0.511,0.468,0.767,1.169,0.767,2.104V67.366z
			 M300.243,67.68v-6.567c0-0.341-0.128-0.632-0.381-0.874c-0.252-0.242-0.583-0.362-0.989-0.362h-0.99
			c-0.406,0-0.736,0.12-0.99,0.362c-0.253,0.242-0.379,0.533-0.379,0.874v6.567c0,0.341,0.126,0.633,0.379,0.874
			c0.254,0.243,0.584,0.363,0.99,0.363h0.99c0.406,0,0.737-0.12,0.989-0.363C300.115,68.313,300.243,68.021,300.243,67.68z"/>
	</g>
	<g id="photography">
		<path fill="#FFFFFF" d="M329.13,24.295c0,2.212-1.19,3.318-3.571,3.318h-2.183v5.712h-1.828v-14.7h3.97
			c2.408,0,3.612,1.092,3.612,3.275V24.295z M327.302,24.506v-2.794c0-0.532-0.123-0.917-0.366-1.155
			c-0.246-0.238-0.635-0.356-1.166-0.356h-2.394v5.838h2.394c0.531,0,0.92-0.123,1.166-0.367
			C327.179,25.426,327.302,25.037,327.302,24.506z"/>
		<path fill="#FFFFFF" d="M340.658,33.325h-1.826v-6.763h-4.326v6.763h-1.828v-14.7h1.828v6.385h4.326v-6.385h1.826V33.325z"/>
		<path fill="#FFFFFF" d="M352.207,29.756c0,1.189-0.325,2.082-0.976,2.677s-1.585,0.893-2.804,0.893h-0.841
			c-1.218,0-2.151-0.298-2.804-0.893c-0.65-0.595-0.976-1.487-0.976-2.677v-7.561c0-1.19,0.325-2.082,0.976-2.678
			c0.652-0.595,1.586-0.893,2.804-0.893h0.841c1.219,0,2.153,0.298,2.804,0.893c0.65,0.596,0.976,1.487,0.976,2.678V29.756z
			 M350.381,30.155v-8.358c0-0.434-0.162-0.805-0.482-1.113c-0.322-0.308-0.742-0.462-1.26-0.462h-1.262
			c-0.517,0-0.938,0.154-1.26,0.462c-0.322,0.309-0.481,0.68-0.481,1.113v8.358c0,0.434,0.159,0.805,0.481,1.113
			c0.321,0.308,0.743,0.462,1.26,0.462h1.262c0.518,0,0.938-0.154,1.26-0.462C350.219,30.959,350.381,30.588,350.381,30.155z"/>
		<path fill="#FFFFFF" d="M363.589,20.221h-3.339v13.104h-1.826V20.221h-3.34v-1.596h8.505V20.221z"/>
		<path fill="#FFFFFF" d="M374.889,29.756c0,1.189-0.326,2.082-0.977,2.677c-0.652,0.595-1.587,0.893-2.805,0.893h-0.839
			c-1.219,0-2.153-0.298-2.804-0.893c-0.652-0.595-0.977-1.487-0.977-2.677v-7.561c0-1.19,0.324-2.082,0.977-2.678
			c0.65-0.595,1.585-0.893,2.804-0.893h0.839c1.218,0,2.152,0.298,2.805,0.893c0.65,0.596,0.977,1.487,0.977,2.678V29.756z
			 M373.061,30.155v-8.358c0-0.434-0.161-0.805-0.483-1.113c-0.322-0.308-0.741-0.462-1.26-0.462h-1.26
			c-0.519,0-0.938,0.154-1.26,0.462c-0.322,0.309-0.483,0.68-0.483,1.113v8.358c0,0.434,0.161,0.805,0.483,1.113
			c0.322,0.308,0.741,0.462,1.26,0.462h1.26c0.519,0,0.938-0.154,1.26-0.462C372.899,30.959,373.061,30.588,373.061,30.155z"/>
		<path fill="#FFFFFF" d="M385.702,33.325h-3.592c-1.218,0-2.151-0.298-2.804-0.893c-0.65-0.595-0.976-1.487-0.976-2.677v-7.561
			c0-1.19,0.325-2.082,0.976-2.678c0.652-0.595,1.586-0.893,2.804-0.893h2.962v1.596H381.9c-0.517,0-0.938,0.154-1.26,0.462
			c-0.322,0.309-0.481,0.68-0.481,1.113v8.358c0,0.434,0.159,0.805,0.481,1.113c0.322,0.308,0.743,0.462,1.26,0.462h2.059v-4.558
			h-1.826v-1.575h3.569V33.325z"/>
		<path fill="#FFFFFF" d="M390.994,27.236v6.09h-1.826v-14.7h3.946c2.408,0,3.612,1.092,3.612,3.275v2.017
			c0,1.582-0.63,2.569-1.89,2.961l2.919,6.447h-1.994l-2.709-6.09H390.994z M394.9,24.127v-2.415c0-0.532-0.122-0.917-0.368-1.155
			c-0.245-0.238-0.633-0.356-1.166-0.356h-2.372v5.46h2.372c0.533,0,0.921-0.123,1.166-0.367
			C394.778,25.048,394.9,24.659,394.9,24.127z"/>
		<path fill="#FFFFFF" d="M409.433,33.325h-1.869l-0.798-3.717h-4.095l-0.82,3.717h-1.869l3.551-14.7h2.414L409.433,33.325z
			 M406.43,28.033l-1.723-8.021l-1.701,8.021H406.43z"/>
		<path fill="#FFFFFF" d="M419.848,24.295c0,2.212-1.189,3.318-3.57,3.318h-2.184v5.712h-1.828v-14.7h3.97
			c2.408,0,3.612,1.092,3.612,3.275V24.295z M418.021,24.506v-2.794c0-0.532-0.123-0.917-0.368-1.155
			c-0.246-0.238-0.633-0.356-1.166-0.356h-2.394v5.838h2.394c0.533,0,0.92-0.123,1.166-0.367
			C417.898,25.426,418.021,25.037,418.021,24.506z"/>
		<path fill="#FFFFFF" d="M431.376,33.325h-1.825v-6.763h-4.327v6.763h-1.827v-14.7h1.827v6.385h4.327v-6.385h1.825V33.325z"/>
		<path fill="#FFFFFF" d="M439.629,33.325h-1.89V26.5l-3.759-7.875h2.016l2.773,6.111l2.771-6.111h1.911l-3.823,7.875V33.325z"/>
	</g>
</g>
<g id="audio">
	<polygon fill="#636464" points="180,-12.987 247.5,-51.951 315,-12.987 315,64.94 247.5,103.902 180,64.94 	"/>
	<g enable-background="new    ">
		<path fill="#FFFFFF" d="M217.901,36.437h-2.936l-1.254-5.841h-6.437l-1.285,5.841h-2.937l5.577-23.101h3.793L217.901,36.437z
			 M213.184,28.121l-2.706-12.607l-2.673,12.607H213.184z"/>
		<path fill="#FFFFFF" d="M234.633,30.826c0,1.871-0.512,3.273-1.535,4.21c-1.022,0.935-2.488,1.401-4.404,1.401h-0.825
			c-1.915,0-3.384-0.467-4.406-1.401c-1.024-0.937-1.535-2.339-1.535-4.21v-17.49h2.871v18.117c0,0.683,0.253,1.266,0.759,1.749
			c0.507,0.485,1.166,0.727,1.98,0.727h1.485c0.814,0,1.472-0.241,1.979-0.727c0.505-0.483,0.758-1.066,0.758-1.749V13.336h2.871
			v17.49H234.633z"/>
		<path fill="#FFFFFF" d="M252.32,31.223c0,1.892-0.435,3.232-1.302,4.025c-0.87,0.795-2.306,1.188-4.307,1.188h-6.8V13.336h6.402
			c1.98,0,3.477,0.404,4.488,1.207c1.013,0.803,1.52,2.117,1.52,3.943v12.736H252.32z M249.449,31.553V18.188
			c0-0.727-0.221-1.304-0.66-1.732c-0.439-0.43-1.022-0.644-1.749-0.644h-4.257v18.149h4.225c0.835,0,1.453-0.191,1.849-0.577
			C249.252,33,249.449,32.389,249.449,31.553z"/>
		<path fill="#FFFFFF" d="M268.326,36.437h-8.812v-2.409h2.971V15.746h-2.971v-2.41h8.812v2.41h-2.97v18.281h2.97V36.437z"/>
		<path fill="#FFFFFF" d="M288.354,30.826c0,1.871-0.51,3.273-1.532,4.21c-1.023,0.935-2.493,1.401-4.406,1.401h-1.321
			c-1.913,0-3.381-0.467-4.405-1.401c-1.023-0.937-1.533-2.339-1.533-4.21v-11.88c0-1.869,0.51-3.272,1.533-4.207
			c1.024-0.935,2.49-1.405,4.405-1.405h1.321c1.912,0,3.383,0.469,4.406,1.405c1.022,0.935,1.532,2.338,1.532,4.207V30.826z
			 M285.484,31.453V18.32c0-0.681-0.253-1.265-0.76-1.749c-0.504-0.483-1.164-0.724-1.978-0.724h-1.98
			c-0.814,0-1.474,0.24-1.98,0.724c-0.507,0.484-0.759,1.068-0.759,1.749v13.134c0,0.683,0.252,1.266,0.759,1.749
			c0.507,0.485,1.166,0.727,1.98,0.727h1.98c0.813,0,1.474-0.241,1.978-0.727C285.231,32.719,285.484,32.136,285.484,31.453z"/>
	</g>
</g>
<g id="video">
	<g id="blank_2_">
		<polygon fill="#636464" points="45,-12.987 112.5,-51.951 180,-12.987 180,64.94 112.5,103.902 45,64.94 		"/>
	</g>
	<g enable-background="new    ">
		<path fill="#F1F2F2" d="M82.375,13.338l-5.181,23.1h-3.927l-4.852-23.1h2.904l3.96,20.198l4.257-20.198H82.375z"/>
		<path fill="#F1F2F2" d="M97.688,36.438h-8.811v-2.409h2.97V15.747h-2.97v-2.409h8.811v2.409h-2.97v18.281h2.97V36.438z"/>
		<path fill="#F1F2F2" d="M117.32,31.225c0,1.891-0.435,3.231-1.303,4.025c-0.87,0.793-2.306,1.188-4.307,1.188h-6.798v-23.1h6.401
			c1.98,0,3.476,0.404,4.488,1.207c1.012,0.803,1.518,2.116,1.518,3.943V31.225z M114.449,31.555V18.19
			c0-0.727-0.22-1.305-0.659-1.733c-0.441-0.429-1.022-0.644-1.749-0.644h-4.257v18.15h4.224c0.836,0,1.452-0.192,1.848-0.578
			C114.252,33.002,114.449,32.391,114.449,31.555z"/>
		<path fill="#F1F2F2" d="M134.447,36.438h-11.021v-23.1h11.021v2.409h-8.15v7.558h7.326v2.406h-7.326v8.316h8.15V36.438z"/>
		<path fill="#F1F2F2" d="M153.356,30.828c0,1.87-0.511,3.273-1.534,4.209c-1.022,0.936-2.491,1.402-4.405,1.402h-1.32
			c-1.913,0-3.382-0.467-4.405-1.402s-1.534-2.339-1.534-4.209V18.948c0-1.869,0.511-3.271,1.534-4.207
			c1.023-0.934,2.492-1.404,4.405-1.404h1.32c1.914,0,3.383,0.469,4.405,1.404c1.023,0.937,1.534,2.338,1.534,4.207V30.828z
			 M150.486,31.455V18.321c0-0.681-0.252-1.264-0.76-1.748c-0.505-0.484-1.165-0.725-1.979-0.725h-1.979
			c-0.814,0-1.474,0.24-1.98,0.725c-0.506,0.484-0.759,1.067-0.759,1.748v13.135c0,0.682,0.252,1.267,0.759,1.748
			c0.505,0.485,1.165,0.727,1.98,0.727h1.979c0.813,0,1.473-0.241,1.979-0.727C150.232,32.722,150.486,32.137,150.486,31.455z"/>
	</g>
</g>
</svg>
