<?xml version="1.0" encoding="utf-8"?>
<!-- Generator: Adobe Illustrator 15.0.0, SVG Export Plug-In . SVG Version: 6.00 Build 0)  -->
<!DOCTYPE svg PUBLIC "-//W3C//DTD SVG 1.1//EN" "http://www.w3.org/Graphics/SVG/1.1/DTD/svg11.dtd">
<svg version="1.1" id="Layer_1" xmlns="http://www.w3.org/2000/svg" xmlns:xlink="http://www.w3.org/1999/xlink" x="0px" y="0px"
	 width="360px" height="207.807px" viewBox="0 0 360 207.807" enable-background="new 0 0 360 207.807" xml:space="preserve">
<g id="Visual_1_">
	<polygon fill="#2D2D2D" points="0,129.879 45,103.904 90,129.879 90,181.831 45,207.807 0,181.831 	"/>
	<path fill="#2D2D2D" stroke="#FFFFFF" stroke-width="2" stroke-miterlimit="10" d="M78.642,155.837
		c-1.016,2.182-2.509,4.217-4.383,6.053c-5.881,5.741-15.559,9.486-26.5,9.486c-10.908,0-20.556-3.724-26.444-9.433
		c-1.886-1.829-3.384-3.865-4.411-6.046c1.381-2.979,3.645-5.687,6.569-7.977c5.942-4.655,14.631-7.589,24.313-7.589
		c9.694,0,18.394,2.944,24.341,7.609C75.019,150.212,77.261,152.892,78.642,155.837z"/>
	<circle fill="#2D2D2D" stroke="#FFFFFF" stroke-width="2" stroke-miterlimit="10" cx="47.773" cy="155.855" r="10.705"/>
</g>
<g id="Audio_1_">
	<polygon fill="#2D2D2D" points="180,129.879 225,103.904 270,129.879 270,181.831 225,207.807 180,181.831 	"/>
	<circle fill="none" stroke="#FFFFFF" stroke-miterlimit="10" cx="225" cy="155.855" r="12.386"/>
	<ellipse fill="none" stroke="#FFFFFF" stroke-width="1.5" stroke-miterlimit="10" cx="225" cy="155.855" rx="23.083" ry="23.083"/>
	<ellipse fill="none" stroke="#FFFFFF" stroke-width="2" stroke-miterlimit="10" cx="225" cy="155.855" rx="32.094" ry="32.087"/>
</g>
<g id="Video_1_">
	<polygon fill="#2D2D2D" points="90,129.879 135,103.904 180,129.879 180,181.831 135,207.807 90,181.831 	"/>
	<path fill="#2D2D2D" stroke="#FFFFFF" stroke-width="2" stroke-miterlimit="10" d="M125.554,146.01v-9.407h35.819v26.077h-35.819
		v-16.57 M105.409,134.379v23.36l10.115-5.841v-11.68L105.409,134.379z M128.747,162.68l-5.122,16.288l-2.538,2.338v1.146h14.878
		l6.117-19.772H128.747z M161.373,140.896v5.099l3.218,1.856v-8.812L161.373,140.896z M115.524,139.04v14.041h4.489V139.04H115.524z
		 M120.013,139.542v12.967h2.579v-12.967H120.013z M122.592,139.899v12.107h2.961v-12.107H122.592z"/>
</g>
<g id="Photography_1_">
	<polygon fill="#2D2D2D" points="270,129.879 315,103.904 360,129.879 360,181.831 315,207.807 270,181.831 	"/>
	<g id="camera_1_">
		
			<rect x="289.756" y="136.403" fill="none" stroke="#FFFFFF" stroke-width="2" stroke-miterlimit="10" width="51.221" height="41.342"/>
		<path fill="none" stroke="#FFFFFF" stroke-width="2" stroke-miterlimit="10" d="M334.689,157.074
			c0,10.675-8.648,19.33-19.323,19.33c-10.677,0-19.332-8.655-19.332-19.33c0-4.105,1.28-7.91,3.469-11.034
			c3.489-5.014,9.293-8.291,15.863-8.291c6.571,0,12.372,3.277,15.854,8.291C333.41,149.164,334.689,152.968,334.689,157.074z"/>
		
			<rect x="304.287" y="128.112" fill="none" stroke="#FFFFFF" stroke-width="2" stroke-miterlimit="10" width="22.152" height="8.295"/>
		<rect x="307.863" y="131.103" fill="none" stroke="#FFFFFF" stroke-width="2" stroke-miterlimit="10" width="15" height="2.651"/>
		<path fill="none" stroke="#FFFFFF" stroke-width="2" stroke-miterlimit="10" d="M331.223,146.04
			c-3.482-5.014-9.285-8.291-15.855-8.291s-12.374,3.277-15.863,8.291c-2.188,3.124-3.469,6.929-3.469,11.034
			c0,10.675,8.656,19.33,19.332,19.33c10.675,0,19.324-8.655,19.324-19.33C334.689,152.968,333.41,149.164,331.223,146.04z"/>
		<path fill="none" stroke="#FFFFFF" stroke-miterlimit="10" d="M315.366,173.478c-9.058,0-16.405-7.347-16.405-16.403
			c0-4.244,1.618-8.123,4.28-11.034c2.993-3.293,7.317-5.364,12.125-5.364s9.124,2.071,12.124,5.364
			c2.656,2.911,4.273,6.79,4.273,11.034C331.764,166.131,324.425,173.478,315.366,173.478z"/>
		
			<rect x="291.807" y="133.162" fill="none" stroke="#FFFFFF" stroke-width="2" stroke-miterlimit="10" width="5.305" height="3.244"/>
		<path fill="none" stroke="#FFFFFF" stroke-width="2" stroke-miterlimit="10" d="M340.977,136.403v9.638h-9.754
			c-3.482-5.014-9.285-8.291-15.855-8.291s-12.374,3.277-15.863,8.291h-9.747v-9.638H340.977z"/>
	</g>
</g>
<g id="design">
	<polygon fill="#636464" points="0,25.976 45,0 90,25.976 90,77.927 45,103.902 0,77.927 	"/>
	<g enable-background="new    ">
		<path fill="#FFFFFF" d="M18.33,55.449c0,1.261-0.29,2.155-0.869,2.684c-0.58,0.528-1.537,0.792-2.871,0.792h-4.532v-15.4h4.268
			c1.32,0,2.317,0.269,2.992,0.804c0.674,0.535,1.012,1.411,1.012,2.629V55.449z M16.416,55.669v-8.91
			c0-0.484-0.147-0.869-0.44-1.155c-0.294-0.286-0.682-0.429-1.166-0.429h-2.838v12.1h2.816c0.557,0,0.968-0.128,1.232-0.385
			C16.283,56.634,16.416,56.227,16.416,55.669z"/>
		<path fill="#FFFFFF" d="M29.747,58.925h-7.348v-15.4h7.348v1.606h-5.434v5.038h4.884v1.605h-4.884v5.544h5.434V58.925z"/>
		<path fill="#FFFFFF" d="M41.671,55.185c0,1.247-0.341,2.182-1.023,2.806c-0.682,0.623-1.661,0.935-2.937,0.935h-3.124v-1.672
			h3.344c0.542,0,0.982-0.161,1.32-0.484c0.337-0.322,0.506-0.711,0.506-1.166v-2.288c0-0.439-0.114-0.795-0.341-1.066
			s-0.568-0.407-1.023-0.407h-0.66c-1.086,0-1.944-0.319-2.574-0.957c-0.631-0.638-0.946-1.565-0.946-2.783v-0.836
			c0-1.246,0.341-2.182,1.023-2.805c0.682-0.623,1.661-0.936,2.937-0.936h3.146v1.673h-3.366c-0.542,0-0.983,0.161-1.32,0.483
			c-0.338,0.323-0.506,0.712-0.506,1.166v1.672c0,0.455,0.146,0.833,0.44,1.133c0.293,0.301,0.674,0.451,1.144,0.451h0.66
			c1.042,0,1.852,0.301,2.431,0.902c0.579,0.602,0.869,1.511,0.869,2.728V55.185z"/>
		<path fill="#FFFFFF" d="M52.759,58.925h-5.874v-1.606h1.98V45.131h-1.98v-1.606h5.874v1.606h-1.98v12.188h1.98V58.925z"/>
		<path fill="#FFFFFF" d="M65.563,58.925h-3.762c-1.276,0-2.255-0.312-2.937-0.935c-0.682-0.624-1.023-1.559-1.023-2.806v-7.92
			c0-1.246,0.341-2.182,1.023-2.805c0.682-0.623,1.661-0.936,2.937-0.936h3.102v1.673h-3.322c-0.543,0-0.983,0.161-1.32,0.483
			c-0.337,0.323-0.506,0.712-0.506,1.166v8.756c0,0.455,0.168,0.844,0.506,1.166c0.337,0.323,0.777,0.484,1.32,0.484h2.156v-4.774
			h-1.914v-1.649h3.74V58.925z"/>
		<path fill="#FFFFFF" d="M77.773,58.925h-3.146l-3.454-13.772v13.772h-1.782v-15.4h3.124l3.476,13.772V43.525h1.782V58.925z"/>
	</g>
</g>
<g id="photo">
	<polygon fill="#636464" points="270,25.975 315.002,-0.001 360,25.975 360,77.927 315.002,103.903 270,77.927 	"/>
	<g enable-background="new    ">
		<path fill="#FFFFFF" d="M294.3,49.467c0,2.317-1.247,3.476-3.739,3.476h-2.289v5.984h-1.914v-15.4h4.158
			c2.523,0,3.784,1.145,3.784,3.433V49.467z M292.386,49.687v-2.926c0-0.558-0.128-0.96-0.385-1.21
			c-0.257-0.249-0.664-0.374-1.222-0.374h-2.508v6.116h2.508c0.558,0,0.965-0.129,1.222-0.385
			C292.258,50.652,292.386,50.244,292.386,49.687z"/>
		<path fill="#FFFFFF" d="M306.378,58.927h-1.914v-7.084h-4.532v7.084h-1.914v-15.4h1.914v6.688h4.532v-6.688h1.914V58.927z"/>
		<path fill="#FFFFFF" d="M318.478,55.187c0,1.247-0.341,2.182-1.022,2.806c-0.683,0.623-1.662,0.935-2.938,0.935h-0.88
			c-1.276,0-2.255-0.312-2.937-0.935c-0.683-0.624-1.023-1.559-1.023-2.806v-7.92c0-1.246,0.341-2.182,1.023-2.805
			c0.682-0.623,1.66-0.936,2.937-0.936h0.88c1.275,0,2.255,0.312,2.938,0.936c0.682,0.623,1.022,1.559,1.022,2.805V55.187z
			 M316.563,55.605v-8.756c0-0.454-0.169-0.843-0.506-1.166c-0.337-0.322-0.777-0.483-1.319-0.483h-1.32
			c-0.543,0-0.982,0.161-1.32,0.483c-0.338,0.323-0.506,0.712-0.506,1.166v8.756c0,0.455,0.168,0.844,0.506,1.166
			c0.338,0.323,0.777,0.484,1.32,0.484h1.32c0.542,0,0.982-0.161,1.319-0.484C316.395,56.448,316.563,56.06,316.563,55.605z"/>
		<path fill="#FFFFFF" d="M330.401,45.199h-3.497v13.728h-1.914V45.199h-3.498v-1.673h8.909V45.199z"/>
		<path fill="#FFFFFF" d="M342.237,55.187c0,1.247-0.341,2.182-1.022,2.806c-0.683,0.623-1.662,0.935-2.938,0.935h-0.88
			c-1.276,0-2.255-0.312-2.937-0.935c-0.683-0.624-1.023-1.559-1.023-2.806v-7.92c0-1.246,0.341-2.182,1.023-2.805
			c0.682-0.623,1.66-0.936,2.937-0.936h0.88c1.275,0,2.255,0.312,2.938,0.936c0.682,0.623,1.022,1.559,1.022,2.805V55.187z
			 M340.323,55.605v-8.756c0-0.454-0.169-0.843-0.506-1.166c-0.337-0.322-0.777-0.483-1.319-0.483h-1.32
			c-0.543,0-0.982,0.161-1.32,0.483c-0.338,0.323-0.506,0.712-0.506,1.166v8.756c0,0.455,0.168,0.844,0.506,1.166
			c0.338,0.323,0.777,0.484,1.32,0.484h1.32c0.542,0,0.982-0.161,1.319-0.484C340.154,56.448,340.323,56.06,340.323,55.605z"/>
	</g>
</g>
<g id="audio">
	<polygon fill="#636464" points="180,25.976 225,0 270,25.976 270,77.927 225,103.902 180,77.927 	"/>
	<g enable-background="new    ">
		<path fill="#FFFFFF" d="M205.268,58.925h-1.957l-0.836-3.894h-4.291l-0.857,3.894h-1.958l3.718-15.4h2.529L205.268,58.925z
			 M202.122,53.381l-1.804-8.404l-1.782,8.404H202.122z"/>
		<path fill="#FFFFFF" d="M216.422,55.185c0,1.247-0.341,2.182-1.023,2.806c-0.682,0.623-1.66,0.935-2.937,0.935h-0.55
			c-1.276,0-2.256-0.312-2.938-0.935c-0.682-0.624-1.023-1.559-1.023-2.806v-11.66h1.914v12.078c0,0.455,0.169,0.844,0.506,1.166
			c0.338,0.323,0.777,0.484,1.32,0.484h0.99c0.543,0,0.982-0.161,1.32-0.484c0.337-0.322,0.506-0.711,0.506-1.166V43.525h1.914
			V55.185z"/>
		<path fill="#FFFFFF" d="M228.214,55.449c0,1.261-0.29,2.155-0.869,2.684s-1.536,0.792-2.871,0.792h-4.532v-15.4h4.268
			c1.32,0,2.318,0.269,2.992,0.804c0.675,0.535,1.013,1.411,1.013,2.629V55.449z M226.3,55.669v-8.91
			c0-0.484-0.147-0.869-0.44-1.155s-0.682-0.429-1.166-0.429h-2.838v12.1h2.816c0.557,0,0.968-0.128,1.232-0.385
			C226.168,56.634,226.3,56.227,226.3,55.669z"/>
		<path fill="#FFFFFF" d="M238.884,58.925h-5.874v-1.606h1.98V45.131h-1.98v-1.606h5.874v1.606h-1.979v12.188h1.979V58.925z"/>
		<path fill="#FFFFFF" d="M252.237,55.185c0,1.247-0.341,2.182-1.022,2.806c-0.683,0.623-1.662,0.935-2.938,0.935h-0.88
			c-1.276,0-2.255-0.312-2.937-0.935c-0.683-0.624-1.023-1.559-1.023-2.806v-7.92c0-1.246,0.341-2.182,1.023-2.805
			c0.682-0.623,1.66-0.936,2.937-0.936h0.88c1.275,0,2.255,0.312,2.938,0.936c0.682,0.623,1.022,1.559,1.022,2.805V55.185z
			 M250.323,55.603v-8.756c0-0.454-0.169-0.843-0.506-1.166c-0.337-0.322-0.777-0.483-1.319-0.483h-1.32
			c-0.543,0-0.982,0.161-1.32,0.483c-0.338,0.323-0.506,0.712-0.506,1.166v8.756c0,0.455,0.168,0.844,0.506,1.166
			c0.338,0.323,0.777,0.484,1.32,0.484h1.32c0.542,0,0.982-0.161,1.319-0.484C250.154,56.447,250.323,56.058,250.323,55.603z"/>
	</g>
</g>
<g id="video">
	<g id="blank_2_">
		<polygon fill="#636464" points="90,25.976 135,0 180,25.976 180,77.927 135,103.902 90,77.927 		"/>
	</g>
	<g enable-background="new    ">
		<path fill="#F1F2F2" d="M114.917,43.526l-3.454,15.4h-2.618l-3.234-15.4h1.936l2.64,13.465l2.838-13.465H114.917z"/>
		<path fill="#F1F2F2" d="M125.125,58.926h-5.874V57.32h1.98V45.132h-1.98v-1.606h5.874v1.606h-1.98V57.32h1.98V58.926z"/>
		<path fill="#F1F2F2" d="M138.214,55.45c0,1.261-0.29,2.155-0.869,2.684c-0.58,0.528-1.537,0.792-2.871,0.792h-4.532v-15.4h4.268
			c1.32,0,2.317,0.269,2.992,0.804c0.674,0.535,1.012,1.411,1.012,2.629V55.45z M136.3,55.67v-8.91c0-0.484-0.147-0.869-0.44-1.155
			c-0.294-0.286-0.682-0.429-1.166-0.429h-2.838v12.1h2.816c0.557,0,0.968-0.128,1.232-0.385
			C136.168,56.635,136.3,56.228,136.3,55.67z"/>
		<path fill="#F1F2F2" d="M149.632,58.926h-7.348v-15.4h7.348v1.606h-5.434v5.038h4.884v1.605h-4.884v5.544h5.434V58.926z"/>
		<path fill="#F1F2F2" d="M162.238,55.186c0,1.247-0.341,2.182-1.023,2.806c-0.682,0.623-1.661,0.935-2.937,0.935h-0.88
			c-1.276,0-2.255-0.312-2.937-0.935c-0.682-0.624-1.023-1.559-1.023-2.806v-7.92c0-1.246,0.341-2.182,1.023-2.805
			s1.661-0.936,2.937-0.936h0.88c1.276,0,2.255,0.312,2.937,0.936s1.023,1.559,1.023,2.805V55.186z M160.324,55.604v-8.756
			c0-0.454-0.168-0.843-0.506-1.166c-0.337-0.322-0.777-0.483-1.32-0.483h-1.32c-0.542,0-0.982,0.161-1.32,0.483
			c-0.337,0.323-0.506,0.712-0.506,1.166v8.756c0,0.455,0.168,0.844,0.506,1.166c0.337,0.323,0.777,0.484,1.32,0.484h1.32
			c0.542,0,0.982-0.161,1.32-0.484C160.155,56.448,160.324,56.059,160.324,55.604z"/>
	</g>
</g>
</svg>
