<?xml version="1.0" encoding="iso-8859-1"?>
<!-- Generator: Adobe Illustrator 15.0.0, SVG Export Plug-In . SVG Version: 6.00 Build 0)  -->
<!DOCTYPE svg PUBLIC "-//W3C//DTD SVG 1.1//EN" "http://www.w3.org/Graphics/SVG/1.1/DTD/svg11.dtd">
<svg version="1.1" id="Layer_1" xmlns="http://www.w3.org/2000/svg" xmlns:xlink="http://www.w3.org/1999/xlink" x="0px" y="0px"
	 width="359.333px" height="60px" viewBox="0 0 359.333 60" style="enable-background:new 0 0 359.333 60;" xml:space="preserve">
<g>
	<path d="M30.196,18.821L17.847,48.396h4.24v3.073H10.108v-3.073h4.346l2.65-6.52L7.989,18.821H3.802v-3.074h11.872v3.074h-4.081
		l7.261,18.974l7.791-18.974h-4.028v-3.074H34.33v3.074H30.196z"/>
</g>
<g>
	<path d="M76.163,28.626c0,7.579-6.095,13.728-13.568,13.728c-7.526,0-13.621-6.148-13.621-13.675
		c0-7.525,6.095-13.621,13.621-13.621C70.121,15.058,76.163,21.1,76.163,28.626z M72.877,28.679c0-5.776-4.611-10.44-10.282-10.44
		c-5.671,0-10.282,4.664-10.282,10.44c0,5.777,4.611,10.494,10.282,10.494C68.266,39.173,72.877,34.456,72.877,28.679z"/>
	<path d="M95.772,44.367h3.763c1.749,2.968,4.823,4.664,8.48,4.664c5.671,0,10.017-4.24,10.017-9.806v-3.444
		c-1.113,1.908-1.643,2.649-2.756,3.604c-2.067,1.855-4.982,2.969-7.844,2.969c-7.367,0-13.409-6.201-13.409-13.621
		c0-7.474,6.095-13.675,13.515-13.675c2.968,0,5.936,1.113,8.056,3.021c1.06,0.954,1.59,1.59,2.597,3.339v-5.671h7.473v3.074h-4.346
		v19.716c0,3.498-0.583,5.671-2.12,7.95c-0.848,1.219-1.855,2.278-3.074,3.127c-2.332,1.696-5.141,2.597-8.215,2.597
		C102.239,52.211,97.575,49.19,95.772,44.367z M118.192,28.679c0-5.776-4.611-10.44-10.388-10.44
		c-5.777,0-10.441,4.664-10.441,10.44c0,5.777,4.664,10.494,10.441,10.494C113.528,39.173,118.192,34.509,118.192,28.679z"/>
</g>
<g>
	<path d="M169.575,18.821V38.59h4.346v3.074h-7.579v-5.459c-1.06,1.643-1.484,2.279-2.385,3.074
		c-2.067,1.961-5.088,3.074-8.215,3.074c-7.367,0-13.462-6.148-13.462-13.568c0-7.526,6.095-13.728,13.568-13.728
		c3.18,0,6.042,1.113,8.162,3.181c0.848,0.848,1.325,1.431,2.332,3.021v-5.512h7.579v3.074H169.575z M166.395,28.626
		c0-5.777-4.611-10.388-10.388-10.388c-5.724,0-10.388,4.664-10.388,10.494c0,5.724,4.611,10.44,10.388,10.44
		C161.731,39.173,166.395,34.456,166.395,28.626z"/>
</g>
<g>
	<path style="fill:#A7A9AC;" d="M199.534,6.312v20.936l9.54-8.692h-3.922v-2.809h12.189v3.074h-4.187l-9.752,8.798l10.918,10.971
		h4.717v3.074h-12.773V38.59h3.657l-10.388-10.494V38.59h3.922v3.074h-11.555V38.59h4.347V9.387h-4.347V6.312H199.534z"/>
	<path style="fill:#A7A9AC;" d="M260.696,15.747V38.59h4.346v3.074h-7.367v-4.293c-2.173,3.339-5.088,4.982-8.851,4.982
		c-5.937,0-10.177-4.506-10.177-10.76V18.821h-4.346v-3.074h7.579v14.628c0,5.3,3.074,8.798,7.738,8.798
		c2.649,0,5.247-1.483,6.678-3.763c0.901-1.432,1.166-2.544,1.166-4.93V18.821h-4.346v-3.074H260.696z"/>
	<path style="fill:#A7A9AC;" d="M290.641,6.312V38.59h4.346v3.074h-11.979V38.59h4.347V9.387h-4.347V6.312H290.641z"/>
	<path style="fill:#A7A9AC;" d="M340.089,18.821V38.59h4.346v3.074h-7.579v-5.459c-1.06,1.643-1.483,2.279-2.385,3.074
		c-2.066,1.961-5.088,3.074-8.215,3.074c-7.367,0-13.462-6.148-13.462-13.568c0-7.526,6.095-13.728,13.567-13.728
		c3.181,0,6.043,1.113,8.162,3.181c0.849,0.848,1.325,1.431,2.332,3.021v-5.512h7.579v3.074H340.089z M336.909,28.626
		c0-5.777-4.611-10.388-10.389-10.388c-5.724,0-10.388,4.664-10.388,10.494c0,5.724,4.611,10.44,10.388,10.44
		C332.245,39.173,336.909,34.456,336.909,28.626z"/>
</g>
<g>
	<path style="fill:#BCBEC0;" d="M343.445,4.395h-2.05v-0.74h4.99v0.74h-2.061v6h-0.88V4.395z"/>
	<path style="fill:#BCBEC0;" d="M353.496,7.435c-0.051-0.94-0.11-2.08-0.11-2.91h-0.021c-0.239,0.78-0.51,1.63-0.85,2.56l-1.19,3.27
		h-0.659l-1.101-3.21c-0.319-0.96-0.58-1.82-0.77-2.62h-0.021c-0.02,0.84-0.069,1.96-0.13,2.98l-0.18,2.89h-0.83l0.47-6.74h1.11
		l1.149,3.26c0.28,0.83,0.5,1.57,0.681,2.27h0.02c0.181-0.68,0.42-1.42,0.721-2.27l1.199-3.26h1.11l0.42,6.74h-0.86L353.496,7.435z"
		/>
</g>
</svg>
